<?xml version="1.0" encoding="UTF-8" standalone="no"?>
<!-- Created with Inkscape (http://www.inkscape.org/) -->

<svg
   xmlns:dc="http://purl.org/dc/elements/1.1/"
   xmlns:cc="http://creativecommons.org/ns#"
   xmlns:rdf="http://www.w3.org/1999/02/22-rdf-syntax-ns#"
   xmlns:svg="http://www.w3.org/2000/svg"
   xmlns="http://www.w3.org/2000/svg"
   xmlns:sodipodi="http://sodipodi.sourceforge.net/DTD/sodipodi-0.dtd"
   xmlns:inkscape="http://www.inkscape.org/namespaces/inkscape"
   width="900"
   height="300"
   id="svg2"
   version="1.1"
   inkscape:version="0.48.0 r9654"
   sodipodi:docname="jmvc.png">
  <defs
     id="defs4" />
  <sodipodi:namedview
     id="base"
     pagecolor="#ffffff"
     bordercolor="#666666"
     borderopacity="1.0"
     inkscape:pageopacity="0.0"
     inkscape:pageshadow="2"
     inkscape:zoom="0.98994949"
     inkscape:cx="217.24976"
     inkscape:cy="208.39616"
     inkscape:document-units="px"
     inkscape:current-layer="layer1"
     showgrid="false"
     inkscape:window-width="1920"
     inkscape:window-height="1031"
     inkscape:window-x="0"
     inkscape:window-y="25"
     inkscape:window-maximized="1" />
  <metadata
     id="metadata7">
    <rdf:RDF>
      <cc:Work
         rdf:about="">
        <dc:format>image/svg+xml</dc:format>
        <dc:type
           rdf:resource="http://purl.org/dc/dcmitype/StillImage" />
        <dc:title></dc:title>
      </cc:Work>
    </rdf:RDF>
  </metadata>
  <g
     inkscape:label="Layer 1"
     inkscape:groupmode="layer"
     id="layer1"
     transform="translate(0,-752.36218)">
    <path
       style="fill:#dadada;fill-opacity:1;stroke:#000000;stroke-width:8;stroke-linecap:butt;stroke-linejoin:round;stroke-miterlimit:4;stroke-opacity:1;stroke-dasharray:none"
       d="m 73.035714,811.07647 46.428576,0.17857 -0.17858,42.32143 -46.607138,-0.71429 z"
       id="path3053"
       inkscape:connector-curvature="0" />
    <path
       style="fill:#dadada;fill-opacity:1;stroke:#000000;stroke-width:8;stroke-linecap:butt;stroke-linejoin:round;stroke-miterlimit:4;stroke-opacity:1;stroke-dasharray:none"
       d="m 135.42857,811.25504 c 21.14746,0.0501 19.22976,0.31808 48.57143,0 -0.95025,52.08378 5.31285,109.38019 -31.07143,158.92857 -16.23049,22.10279 -52.74292,45.14049 -52.74292,45.14049 -9.3414,-12.6287 -25.519949,-36.29858 -25.519949,-36.29858 0,0 20.87837,-14.88988 39.155729,-35.88234 22.96713,-26.3789 21.53111,-83.724 21.60714,-131.88814 z"
       id="path3055"
       inkscape:connector-curvature="0"
       sodipodi:nodetypes="ccsccsc" />
    <path
       style="fill:#ff0000;fill-opacity:1;stroke:#000000;stroke-width:8;stroke-linecap:butt;stroke-linejoin:round;stroke-miterlimit:4;stroke-opacity:1;stroke-dasharray:none"
       d="m 234.64286,812.14789 62.14285,0.35715 1.42858,106.78571 -62.5,0.35714 z"
       id="path3057"
       inkscape:connector-curvature="0" />
    <path
       style="fill:#ff0000;fill-opacity:1;stroke:#000000;stroke-width:8;stroke-linecap:butt;stroke-linejoin:round;stroke-miterlimit:4;stroke-opacity:1;stroke-dasharray:none"
       d="m 314.30845,836.5639 c -0.2378,23.04067 0.22536,36.6469 0.25254,55.55839 4.8254,1.23382 16.16244,0.50508 25.7589,15.15229 3.7393,5.70734 12.9939,16.42851 11.61675,77.27667 8.47184,-0.26607 45.71059,-0.1999 58.08377,0 0.25135,-34.9029 4.54569,-90.66118 -26.51651,-122.48099 -24.24366,-23.23351 -36.1277,-25.56606 -69.19545,-25.50636 z"
       id="path2987"
       inkscape:connector-curvature="0"
       sodipodi:nodetypes="ccscccc" />
    <path
       style="fill:#ff0000;fill-opacity:1;stroke:#000000;stroke-width:8;stroke-linecap:butt;stroke-linejoin:round;stroke-miterlimit:4;stroke-opacity:1;stroke-dasharray:none"
       d="m 391.08005,847.17051 c 14.4252,13.16767 23.04446,29.71904 27.52665,45.20432 18.6451,-8.84837 32.59393,5.91274 36.87057,17.1726 8.7097,24.32708 7.07107,46.75128 7.07107,46.75128 0,0 27.04444,0.3093 49.49747,0 -1.20115,-24.04461 -0.50507,-42.2056 -9.59644,-66.7018 -5.42516,-14.61779 -14.64722,-39.90102 -49.49748,-52.78047 -18.43707,-6.8137 -46.05782,-6.94968 -61.87184,10.35407 z"
       id="path2989"
       inkscape:connector-curvature="0"
       sodipodi:nodetypes="cccccssc" />
    <path
       style="fill:#00ff00;fill-opacity:1;stroke:#000000;stroke-width:8;stroke-linecap:butt;stroke-linejoin:round;stroke-miterlimit:4;stroke-opacity:1;stroke-dasharray:none"
       d="m 544.87577,915.3558 28.78935,-29.29442 35.35534,37.88072 0.25254,60.86169 z"
       id="path2991"
       inkscape:connector-curvature="0" />
    <path
       style="fill:#00ff00;fill-opacity:1;stroke:#000000;stroke-width:8;stroke-linecap:butt;stroke-linejoin:round;stroke-miterlimit:4;stroke-opacity:1;stroke-dasharray:none"
       d="m 628.97097,926.97256 -0.50507,57.57869 c 0,0 19.00833,-8.74206 31.06219,-22.22335 19.1929,-21.46574 26.26396,-38.63834 30.05203,-62.62946 2.6626,-16.86312 2.52539,-78.53936 2.52539,-78.53936 l -43.94164,0 c 0,0 2.77792,70.2056 -3.53553,83.33758 -6.31346,13.13199 -15.65737,22.4759 -15.65737,22.4759 z"
       id="path2993"
       inkscape:connector-curvature="0"
       sodipodi:nodetypes="ccssccsc" />
    <path
       style="fill:#0000ff;fill-opacity:1;stroke:#000000;stroke-width:8;stroke-linecap:butt;stroke-linejoin:round;stroke-miterlimit:4;stroke-opacity:1;stroke-dasharray:none"
       d="m 777.85714,913.93361 -44.64285,0.71428 c 0,0 -1.35986,-33.20685 1.42857,-51.78571 2.30389,-15.35044 18.07378,-35.33176 36.42857,-44.28571 20.72287,-10.10917 72.85714,-6.42858 72.85714,-6.42858 l 0.71429,48.57143 c 0,0 -27.27362,-0.0561 -37.30131,0.71429 -20.75453,1.59445 -28.39257,14.72624 -29.12726,26.27012 -0.77557,12.18619 -0.35715,26.22988 -0.35715,26.22988 z"
       id="path2995"
       inkscape:connector-curvature="0"
       sodipodi:nodetypes="ccssccssc" />
    <path
       style="fill:#0000ff;fill-opacity:1;stroke:#000000;stroke-width:8;stroke-linecap:butt;stroke-linejoin:round;stroke-miterlimit:4;stroke-opacity:1;stroke-dasharray:none"
       d="m 733.62762,930.97186 88.21428,-1.07143 0.71429,40.71429 c -38.52288,-0.003 -55.55405,1.9973 -75.90863,-12.50308 -13.88614,-9.89233 -13.01994,-27.13978 -13.01994,-27.13978 z"
       id="path2997"
       inkscape:connector-curvature="0"
       sodipodi:nodetypes="cccsc" />
  </g>
</svg>
