<?xml version="1.0" encoding="UTF-8" standalone="no"?>
<!-- Created with Inkscape (http://www.inkscape.org/) -->

<svg
   xmlns:dc="http://purl.org/dc/elements/1.1/"
   xmlns:cc="http://creativecommons.org/ns#"
   xmlns:rdf="http://www.w3.org/1999/02/22-rdf-syntax-ns#"
   xmlns:svg="http://www.w3.org/2000/svg"
   xmlns="http://www.w3.org/2000/svg"
   xmlns:sodipodi="http://sodipodi.sourceforge.net/DTD/sodipodi-0.dtd"
   xmlns:inkscape="http://www.inkscape.org/namespaces/inkscape"
   width="520"
   height="120"
   id="svg2"
   version="1.1"
   inkscape:version="0.48.2 r9819"
   sodipodi:docname="jmvc.svg">
  <defs
     id="defs4" />
  <sodipodi:namedview
     id="base"
     pagecolor="#ffffff"
     bordercolor="#666666"
     borderopacity="1.0"
     inkscape:pageopacity="0.0"
     inkscape:pageshadow="2"
     inkscape:zoom="1.4"
     inkscape:cx="157.66555"
     inkscape:cy="72.122868"
     inkscape:document-units="px"
     inkscape:current-layer="layer1"
     showgrid="false"
     inkscape:window-width="1293"
     inkscape:window-height="703"
     inkscape:window-x="0"
     inkscape:window-y="0"
     inkscape:window-maximized="0" />
  <metadata
     id="metadata7">
    <rdf:RDF>
      <cc:Work
         rdf:about="">
        <dc:format>image/svg+xml</dc:format>
        <dc:type
           rdf:resource="http://purl.org/dc/dcmitype/StillImage" />
        <dc:title />
      </cc:Work>
    </rdf:RDF>
  </metadata>
  <g
     inkscape:label="Layer 1"
     inkscape:groupmode="layer"
     id="layer1"
     transform="translate(0,-932.3567)">
    <path
       style="fill:#0000ff;fill-opacity:1;stroke:#000000;stroke-width:4;stroke-linecap:butt;stroke-linejoin:miter;stroke-miterlimit:4;stroke-opacity:1;stroke-dasharray:none"
       d="m 509.81541,1043.111 -99.87276,-0.5051 c 0,0 4.17206,-44.6992 20.48672,-71.72078 16.31466,-27.02158 79.29003,-27.52666 79.29003,-27.52666 l 0,17.1726 c 0,0 -52.36621,0.86801 -65.85967,22.22335 -13.49346,21.35529 -13.59728,42.17389 -13.59728,42.17389 l 79.55296,-1.0102 z"
       id="path3033"
       inkscape:connector-curvature="0"
       sodipodi:nodetypes="cczcczccc" />
    <path
       sodipodi:nodetypes="cczcczccc"
       inkscape:connector-curvature="0"
       id="path3813"
       d="m 316.00275,943.29836 0.50508,99.87274 c 0,0 44.69924,-4.172 71.72082,-20.4867 27.02158,-16.3147 27.52666,-79.29003 27.52666,-79.29003 l -17.1726,0 c 0,0 -0.86801,52.36621 -22.22335,65.85963 -21.35534,13.4935 -42.17387,13.5973 -42.17387,13.5973 l 1.01016,-79.55294 z"
       style="fill:#00ff00;fill-opacity:1;stroke:#000000;stroke-width:4;stroke-linecap:butt;stroke-linejoin:miter;stroke-miterlimit:4;stroke-opacity:1;stroke-dasharray:none" />
    <path
       sodipodi:nodetypes="cczcczccc"
       inkscape:connector-curvature="0"
       id="path3817"
       d="m 303.75531,1043.1711 -0.50508,-99.87274 c 0,0 -44.69924,4.17206 -71.72082,20.48672 -27.02158,16.31466 -27.52666,79.29002 -27.52666,79.29002 l 17.1726,0 c 0,0 0.86801,-52.3662 22.22335,-65.85966 21.35534,-13.49346 42.17387,-13.59728 42.17387,-13.59728 l -1.01016,79.55294 z"
       style="fill:#ff0000;fill-opacity:1;stroke:#000000;stroke-width:4;stroke-linecap:butt;stroke-linejoin:miter;stroke-miterlimit:4;stroke-opacity:1;stroke-dasharray:none" />
    <path
       style="fill:#ffff00;fill-opacity:1;stroke:#000000;stroke-width:4;stroke-linecap:butt;stroke-linejoin:miter;stroke-miterlimit:4;stroke-opacity:1;stroke-dasharray:none"
       d="m 11.94265,943.35846 99.87276,0.50508 c 0,0 -4.17206,44.69924 -20.48672,71.72086 -16.31466,27.0215 -79.29003,27.5266 -79.29003,27.5266 l 0,-17.1726 c 0,0 52.36621,-0.868 65.85967,-22.2233 13.49346,-21.35537 13.59728,-42.1739 13.59728,-42.1739 l -79.55296,1.01016 z"
       id="path3819"
       inkscape:connector-curvature="0"
       sodipodi:nodetypes="cczcczccc" />
    <path
       style="fill:#ff0000;fill-opacity:1;stroke:#000000;stroke-width:4;stroke-linecap:butt;stroke-linejoin:miter;stroke-miterlimit:4;stroke-opacity:1;stroke-dasharray:none"
       d="m 122.00275,1043.1711 0.50508,-99.87274 c 0,0 44.69924,4.17206 71.72082,20.48672 27.02158,16.31466 27.52666,79.29002 27.52666,79.29002 l -17.1726,0 c 0,0 -0.86801,-52.3662 -22.22335,-65.85966 -21.35534,-13.49346 -42.17387,-13.59728 -42.17387,-13.59728 l 1.01016,79.55294 z"
       id="path3815"
       inkscape:connector-curvature="0"
       sodipodi:nodetypes="cczcczccc" />
  </g>
</svg>
