<?xml version="1.0" encoding="UTF-8" standalone="no"?>
<!-- Created with Inkscape (http://www.inkscape.org/) -->

<svg
   xmlns:dc="http://purl.org/dc/elements/1.1/"
   xmlns:cc="http://creativecommons.org/ns#"
   xmlns:rdf="http://www.w3.org/1999/02/22-rdf-syntax-ns#"
   xmlns:svg="http://www.w3.org/2000/svg"
   xmlns="http://www.w3.org/2000/svg"
   xmlns:sodipodi="http://sodipodi.sourceforge.net/DTD/sodipodi-0.dtd"
   xmlns:inkscape="http://www.inkscape.org/namespaces/inkscape"
   width="900"
   height="300"
   id="svg2"
   version="1.1"
   inkscape:version="0.48.0 r9654"
   sodipodi:docname="jmvc.svg">
  <defs
     id="defs4" />
  <sodipodi:namedview
     id="base"
     pagecolor="#ffffff"
     bordercolor="#666666"
     borderopacity="1.0"
     inkscape:pageopacity="0.0"
     inkscape:pageshadow="2"
     inkscape:zoom="0.49497475"
     inkscape:cx="402.55649"
     inkscape:cy="-44.041089"
     inkscape:document-units="px"
     inkscape:current-layer="layer1"
     showgrid="false"
     inkscape:window-width="1920"
     inkscape:window-height="1031"
     inkscape:window-x="0"
     inkscape:window-y="25"
     inkscape:window-maximized="1" />
  <metadata
     id="metadata7">
    <rdf:RDF>
      <cc:Work
         rdf:about="">
        <dc:format>image/svg+xml</dc:format>
        <dc:type
           rdf:resource="http://purl.org/dc/dcmitype/StillImage" />
        <dc:title />
      </cc:Work>
    </rdf:RDF>
  </metadata>
  <g
     inkscape:label="Layer 1"
     inkscape:groupmode="layer"
     id="layer1"
     transform="translate(0,-752.36218)">
    <path
       style="fill:#dadada;stroke:#000000;stroke-width:8;stroke-linecap:butt;stroke-linejoin:miter;stroke-opacity:1;stroke-miterlimit:4;stroke-dasharray:none;fill-opacity:1"
       d="M 63.035714,70.714285 109.46429,70.892857 109.28571,113.21429 62.678572,112.5 z"
       id="path3053"
       inkscape:connector-curvature="0"
       transform="translate(0,752.36218)" />
    <path
       style="fill:#dadada;stroke:#000000;stroke-width:8;stroke-linecap:butt;stroke-linejoin:miter;stroke-opacity:1;stroke-miterlimit:4;stroke-dasharray:none;fill-opacity:1"
       d="m 125.42857,823.25504 c 21.14746,0.0501 48.57143,0 48.57143,0 0,0 6.60714,70.35714 -31.07143,118.92857 -23.80663,30.68912 -64.107141,48.92857 -64.107141,48.92857 L 62.392858,952.54075 c 0,0 23.151213,-8.82897 41.428572,-29.82143 22.96713,-26.3789 21.53111,-51.30014 21.60714,-99.46428 z"
       id="path3055"
       inkscape:connector-curvature="0"
       sodipodi:nodetypes="ccsccsc" />
    <path
       style="fill:#ff0000;stroke:#000000;stroke-width:8;stroke-linecap:butt;stroke-linejoin:miter;stroke-opacity:1;stroke-miterlimit:4;stroke-dasharray:none;fill-opacity:1"
       d="m 224.64286,71.785714 62.14285,0.357143 1.42858,106.785713 -62.5,0.35714 z"
       id="path3057"
       inkscape:connector-curvature="0"
       transform="translate(0,752.36218)" />
    <path
       style="fill:#ff0000;stroke:#000000;stroke-width:8;stroke-linecap:butt;stroke-linejoin:miter;stroke-opacity:1;stroke-miterlimit:4;stroke-dasharray:none;fill-opacity:1"
       d="m 304.30845,96.201724 c -0.2378,23.040666 0.22536,36.646896 0.25254,55.558386 4.8254,1.23382 16.16244,0.50508 25.7589,15.15229 3.7393,5.70734 12.9939,16.42851 11.61675,77.27667 8.47184,-0.26607 45.71059,-0.1999 58.08377,0 0.25135,-34.9029 4.54569,-90.66118 -26.51651,-122.48099 C 349.26024,98.474569 337.3762,96.142024 304.30845,96.201724 z"
       id="path2987"
       inkscape:connector-curvature="0"
       transform="translate(0,752.36218)"
       sodipodi:nodetypes="ccscccc" />
    <path
       style="fill:#ff0000;stroke:#000000;stroke-width:8;stroke-linecap:butt;stroke-linejoin:miter;stroke-opacity:1;stroke-miterlimit:4;stroke-dasharray:none;fill-opacity:1"
       d="m 381.08005,106.80833 c 8.68218,8.46491 10.98649,11.49608 16.41498,19.44544 5.42849,7.94935 11.11167,25.75888 11.11167,25.75888 0,0 8.83884,-5.05076 13.38453,-3.78807 4.54568,1.26269 16.16244,0.50507 23.48604,20.96067 8.7097,24.32708 7.07107,74.75128 7.07107,74.75128 0,0 27.04444,0.3093 49.49747,0 -1.20115,-24.04461 -0.50507,-70.2056 -9.59644,-94.7018 -5.42516,-14.61779 -14.64722,-39.90102 -49.49748,-52.780468 -18.43707,-6.813698 -46.05782,-6.94968 -61.87184,10.354068 z"
       id="path2989"
       inkscape:connector-curvature="0"
       transform="translate(0,752.36218)"
       sodipodi:nodetypes="czcssccssc" />
    <path
       style="fill:#00ff00;stroke:#000000;stroke-width:8;stroke-linecap:butt;stroke-linejoin:miter;stroke-opacity:1;stroke-miterlimit:4;stroke-dasharray:none;fill-opacity:1"
       d="m 534.87577,174.99362 28.78935,-29.29442 35.35534,37.88072 0.25254,60.86169 z"
       id="path2991"
       inkscape:connector-curvature="0"
       transform="translate(0,752.36218)" />
    <path
       style="fill:#00ff00;stroke:#000000;stroke-width:8;stroke-linecap:butt;stroke-linejoin:miter;stroke-opacity:1;stroke-miterlimit:4;stroke-dasharray:none;fill-opacity:1"
       d="m 618.97097,186.61038 -0.50507,57.57869 c 0,0 19.00833,-8.74206 31.06219,-22.22335 19.1929,-21.46574 26.26396,-38.63834 30.05203,-62.62946 2.6626,-16.86312 2.52539,-78.539362 2.52539,-78.539362 l -43.94164,0 c 0,0 2.77792,70.205602 -3.53553,83.337582 -6.31346,13.13199 -15.65737,22.4759 -15.65737,22.4759 z"
       id="path2993"
       inkscape:connector-curvature="0"
       transform="translate(0,752.36218)"
       sodipodi:nodetypes="ccssccsc" />
    <path
       style="fill:#0000ff;stroke:#000000;stroke-width:8;stroke-linecap:butt;stroke-linejoin:miter;stroke-opacity:1;stroke-miterlimit:4;stroke-dasharray:none;fill-opacity:1"
       d="m 767.85714,173.57143 -44.64285,0.71428 c 0,0 -1.35986,-33.20685 1.42857,-51.78571 2.30389,-15.35044 18.07378,-35.331762 36.42857,-44.285714 20.72287,-10.109168 72.85714,-6.428572 72.85714,-6.428572 l 0.71429,48.571426 c 0,0 -27.27362,-0.0561 -37.30131,0.71429 -20.75453,1.59445 -28.39257,14.72624 -29.12726,26.27012 -0.77557,12.18619 -0.35715,26.22988 -0.35715,26.22988 z"
       id="path2995"
       inkscape:connector-curvature="0"
       transform="translate(0,752.36218)"
       sodipodi:nodetypes="ccssccssc" />
    <path
       style="fill:#0000ff;stroke:#000000;stroke-width:8;stroke-linecap:butt;stroke-linejoin:miter;stroke-opacity:1;stroke-miterlimit:4;stroke-dasharray:none;fill-opacity:1"
       d="m 723.62762,942.97186 88.21428,-1.07143 0.71429,40.71429 c -38.52288,-0.003 -55.55405,1.9973 -75.90863,-12.50308 -13.88614,-9.89233 -13.01994,-27.13978 -13.01994,-27.13978 z"
       id="path2997"
       inkscape:connector-curvature="0"
       sodipodi:nodetypes="cccsc" />
  </g>
</svg>
