<?xml version="1.0" encoding="UTF-8" standalone="no"?>
<!-- Generator: Adobe Illustrator 18.0.0, SVG Export Plug-In . SVG Version: 6.00 Build 0)  -->

<svg
   xmlns:dc="http://purl.org/dc/elements/1.1/"
   xmlns:cc="http://creativecommons.org/ns#"
   xmlns:rdf="http://www.w3.org/1999/02/22-rdf-syntax-ns#"
   xmlns:svg="http://www.w3.org/2000/svg"
   xmlns="http://www.w3.org/2000/svg"
   xmlns:sodipodi="http://sodipodi.sourceforge.net/DTD/sodipodi-0.dtd"
   xmlns:inkscape="http://www.inkscape.org/namespaces/inkscape"
   version="1.1"
   id="Layer_1"
   x="0px"
   y="0px"
   viewBox="282.4 369.3 56 56"
   enable-background="new 282.4 369.3 160 56.1"
   xml:space="preserve"
   inkscape:version="0.48.5 r10040"
   width="100%"
   height="100%"
   sodipodi:docname="logo4.svg"><metadata
     id="metadata3043"><rdf:RDF><cc:Work
         rdf:about=""><dc:format>image/svg+xml</dc:format><dc:type
           rdf:resource="http://purl.org/dc/dcmitype/StillImage" /></cc:Work></rdf:RDF></metadata><defs
     id="defs3041" /><sodipodi:namedview
     pagecolor="#ffffff"
     bordercolor="#666666"
     borderopacity="1"
     objecttolerance="10"
     gridtolerance="10"
     guidetolerance="10"
     inkscape:pageopacity="0"
     inkscape:pageshadow="2"
     inkscape:window-width="2554"
     inkscape:window-height="1304"
     id="namedview3039"
     showgrid="false"
     inkscape:zoom="12.85625"
     inkscape:cx="80.530915"
     inkscape:cy="28.836844"
     inkscape:window-x="0"
     inkscape:window-y="0"
     inkscape:window-maximized="0"
     inkscape:current-layer="Layer_1" /><path
     d="m 316.16731,387.35 -5.69987,4.4 -5.69988,-4.4 v -13.6 l 0,0 c 0,-3.1 2.59995,-4.3 5.69988,-4.3 3.19993,0 5.69987,1.2 5.69987,4.4 0,0 0,13.5 0,13.5 z m -23.29948,-6.7 c -2.69994,-1.5 -5.09989,0 -6.59986,2.8 -1.49996,2.7 -1.89995,5.6 0.89998,7.1 l 0,0 11.79974,6.8 6.59986,-2.8 -0.89998,-7.1 c 0,-0.1 -11.69974,-6.8 -11.79974,-6.8 z m -5.69988,23.4 c -2.69994,1.5 -2.39994,4.4 -0.89998,7.1 1.59997,2.7 3.89992,4.4 6.59986,2.8 l 0,0 11.79974,-6.8 0.99997,-7.2 -6.59985,-2.8 c -0.2,0.1 -11.79974,6.9 -11.89974,6.9 z m 17.49962,16.7 c 0,3.2 2.49994,4.4 5.69987,4.4 3.09993,0 5.69987,-1.2 5.69987,-4.3 l 0,0 v -13.6 l -5.69987,-4.4 -5.69987,4.4 c 0,0 0,13.5 0,13.5 z m 23.19948,-6.7 c 2.69994,1.5 5.09989,-0.1 6.59985,-2.8 1.49997,-2.7 1.89996,-5.6 -0.89998,-7.1 l 0,0 -11.79973,-6.8 -6.59986,2.8 0.89998,7.2 c 0.1,-0.1 11.79974,6.6 11.79974,6.7 z m 5.79987,-23.5 c 2.69994,-1.5 2.39995,-4.4 0.89998,-7.1 -1.59996,-2.7 -3.89991,-4.4 -6.59985,-2.8 l 0,0 -11.79974,6.8 -0.89998,7.1 6.59985,2.8 c 0,0 11.69974,-6.7 11.79974,-6.8 z"
     id="path3035"
     inkscape:connector-curvature="0"
     style="fill:#e51d8a" /></svg>